Genre:Adventure | Family
Language:English
IMDb:http://www.imdb.com/title/tt1544572/
Source:720p.BluRay.x264-aAF


General
Complete name :The.Search.For.Santa.Paws.2010.720p.BRRip.H264.Feel-Free
Format : MPEG-4
Format profile : Base Media
Codec ID : mp42
File size : 1.32 GiB
Duration : 1h 36mn
Overall bit rate : 1 960 Kbps
Video #1
Codec ID : avc1
Codec ID/Info : Advanced Video Coding
Duration : 1h 36mn
Bit rate mode : Variable
Bit rate : 1 479 Kbps
Width : 1 280 pixels
Height : 720 pixels
Display aspect ratio : 16:9
Frame rate mode : Constant
Frame rate : 23.976 fps
Resolution : 24 bits
Colorimetry : 4:2:0
Scan type : Progressive
Bits/(Pixel*Frame) : 0.067
Stream size : 1 020 MiB (75%)
Audio #2
ID : 2
Format : AAC
Format/Info : Advanced Audio Codec
Format version : Version 4
Format profile : LC
Format settings, SBR : No
Codec ID : 40
Duration : 1h 36mn
Bit rate mode : Constant
Bit rate : 477 Kbps
Nominal bit rate : 480 Kbps
Channel(s) : 6 channels
Channel positions : Front: L C R, Rear: L R, LFE
Sampling rate : 48.0 KHz
Resolution : 16 bits
Stream size : 329 MiB (24%)

